<svg width="34" height="54" viewBox="0 0 34 54" fill="none" xmlns="http://www.w3.org/2000/svg">
<path d="M3.56006 50L6.12012 40.5L15.0803 36V35H19.5604V36H22.1205L27.8806 40L31.7207 51.5L27.2406 52.5L25.9606 47L24.6805 52.5H9.9602V45.5L7.40015 52.5L3.56006 50Z" fill="#F7F7F7" stroke="#F7F7F7"/>
<path d="M30.4417 45C33.0017 49 31.5083 50.6667 30.4417 51" stroke="#A8ADB5" stroke-width="0.5"/>
<path d="M20.5813 47.2195C21.3928 51.6465 23.8352 52.3521 24.9551 52.1515" stroke="#A9ADB5" stroke-width="0.5"/>
<path d="M2.3233 17.5292V22.5292L5.52323 15.5292L4.88321 14.0292C6.16324 12.5292 10.0033 9.32924 15.1234 8.52924C20.2436 7.72924 26.217 12.1959 28.5638 14.5292L27.2837 15.5292L32.4038 23.0292C33.2572 20.6959 33.4279 14.2292 27.2837 7.02922C29.3318 6.2292 29.4171 5.02921 29.2038 4.52922C26.6437 6.0292 26.6437 4.52922 24.7237 4.52922C22.1636 1.32922 17.2568 0.862551 15.1234 1.02922C12.7767 1.02922 7.4433 2.22922 4.88335 7.02922C1.29927 9.02922 0.829929 14.8626 1.04327 17.5292H2.3233Z" fill="#98602F" stroke="#98602F"/>
<path d="M11.5649 47.9054C10.9249 44.2387 10.7969 36.6054 15.405 35.4054C21.1651 33.9054 22.4452 36.9054 23.7252 38.9054M23.7252 38.9054C18.6051 43.3054 19.4584 46.4054 20.5251 47.4054M23.7252 38.9054C29.8693 41.7054 30.552 44.0721 30.1254 44.9054" stroke="black" stroke-linecap="round"/>
<path d="M15.0803 35H19.5604C19.5604 36.5 18.9204 38 17.0004 38C15.3812 38 15.0803 36.1667 15.0803 35Z" fill="#C9795E" stroke="#C9795E"/>
<path d="M5.8228 16.7424C-3.39341 27.5424 7.5295 32.909 14.143 34.2424C17.727 35.3415 23.6633 33.2424 26.3034 31.7424C33.3435 27.7424 31.4235 18.7424 26.9434 15.7424L27.6878 15.1608C27.7157 15.139 27.7582 15.1058 28.2234 14.7424C18.4952 4.34238 7.9563 10.409 3.90287 14.7424C4.54285 14.909 5.8228 15.5424 5.8228 16.7424Z" fill="#FED7BA" stroke="#FED7BA"/>
<path d="M14.5803 47.5C14.5803 48.4967 13.4934 49.5 11.8802 49.5C10.2671 49.5 9.18018 48.4967 9.18018 47.5C9.18018 46.5033 10.2671 45.5 11.8802 45.5C13.4934 45.5 14.5803 46.5033 14.5803 47.5Z" fill="#C4C4C4" stroke="black"/>
<path d="M13.8003 29C14.6536 30.6667 17.0004 33 19.5604 29" stroke="#98602F" stroke-linecap="round"/>
<ellipse cx="30.4407" cy="26.5" rx="2.56006" ry="1.5" fill="#F68F6E"/>
<ellipse cx="3.56006" cy="26.5" rx="2.56006" ry="1.5" fill="#F68F6E"/>
<ellipse rx="2.95275" ry="4.62573" transform="matrix(0.997927 0.0643533 -0.105075 0.994464 10.8329 22.7901)" fill="white"/>
<path d="M13.762 16.9967C13.1974 15.9615 9.32026 15.6391 8.68024 16.4791C11.2403 16.4791 14.2137 17.4107 13.762 16.9967Z" fill="#98602F" stroke="#98602F"/>
<path d="M20.2463 16.9967C20.8109 15.9615 24.688 15.6391 25.3281 16.4791C22.768 16.4791 19.7946 17.4107 20.2463 16.9967Z" fill="#98602F" stroke="#98602F"/>
<ellipse rx="2.95275" ry="4.62573" transform="matrix(-0.997927 0.0643533 0.105075 0.994464 23.6332 22.7901)" fill="white"/>
<path d="M4.84009 26L3.56006 27.5" stroke="#98602F" stroke-width="0.5" stroke-linecap="round"/>
<path d="M4.84009 26L3.56006 27.5" stroke="#98602F" stroke-width="0.5" stroke-linecap="round"/>
<path d="M30.4407 26L29.1606 27.5" stroke="#98602F" stroke-width="0.5" stroke-linecap="round"/>
<path d="M30.4407 26L29.1606 27.5" stroke="#98602F" stroke-width="0.5" stroke-linecap="round"/>
<path d="M31.7207 26L30.4407 27.5" stroke="#98602F" stroke-width="0.5" stroke-linecap="round"/>
<path d="M31.7207 26L30.4407 27.5" stroke="#98602F" stroke-width="0.5" stroke-linecap="round"/>
<path d="M3.56006 25L2.28003 26.5" stroke="#98602F" stroke-width="0.5" stroke-linecap="round"/>
<path d="M3.56006 25L2.28003 26.5" stroke="#98602F" stroke-width="0.5" stroke-linecap="round"/>
<ellipse rx="1.90836" ry="2.91739" transform="matrix(-0.990333 0.138708 0.223673 0.974664 24.0229 22.1082)" fill="#3C1008"/>
<ellipse rx="1.90836" ry="2.91739" transform="matrix(0.990333 0.138708 -0.223673 0.974664 11.2225 22.1082)" fill="#3C1008"/>
<ellipse rx="0.896706" ry="1.24318" transform="matrix(-0.974333 0.225111 0.354037 0.935232 22.7942 20.3645)" fill="#EDFCFD"/>
<ellipse rx="0.896706" ry="1.24318" transform="matrix(0.974333 0.225111 -0.354037 0.935232 11.2741 20.3645)" fill="#EDFCFD"/>
<path d="M29.1606 50.7077C29.1606 50.9908 29.502 51.2974 29.6727 51.4154C29.6727 52.2646 30.3553 52.0051 30.6967 51.7692L31.7207 51.4154L30.6967 50L29.6727 50.3538C29.502 50.3538 29.1606 50.4246 29.1606 50.7077Z" fill="black" stroke="black"/>
<path d="M26.4166 50.4622C26.6841 50.6531 26.7438 51.0568 26.7401 51.2348C27.5427 51.8075 26.837 52.0263 26.3839 52.0641L25.3588 52.4161L24.7118 50.8709L25.7369 50.5188C25.852 50.4204 26.1491 50.2712 26.4166 50.4622Z" fill="black" stroke="black"/>
</svg>
