<svg width="39" height="56" viewBox="0 0 39 56" fill="none" xmlns="http://www.w3.org/2000/svg">
<path d="M7 50L6 55.5H10L11 51.5L7 50Z" fill="#E1A173" stroke="#E1A173"/>
<path d="M34 50L35 55.5H31L30 51.5L34 50Z" fill="#E1A173" stroke="#E1A173"/>
<path d="M7 50.5L11 51.5L12.5 53.5V55.5H29V52H33L34.5 50.5C34.6667 50.8333 34.2 49.5 33 45.5C31.5 40.5 25 39.5 22.5 38.5C21 40 20 40.5 19.5 40.5C19.1 40.5 18 38.8333 17.5 38C17 38.1667 15.7 38.7 14.5 39.5C12.9 39.5 9.83333 42.1667 8.5 43.5L7 50.5Z" fill="#E63636" stroke="#E63636"/>
<path d="M17.0778 38L14.0778 39.5C13.4778 39.8 16.4945 42.2917 18.0778 43.5L20.0778 41.5L21.5778 43.5C22.7778 42.7 24.7445 40.5 25.5778 39.5C24.7445 39 22.9778 38 22.5778 38C22.0778 38 20.5778 40.5 19.0778 40.5C17.8778 40.5 17.2445 38.8333 17.0778 38Z" fill="black" stroke="black"/>
<path d="M18 37V39L20 41L22.5 39V37H18Z" fill="#BD7D51" stroke="#BC7C50"/>
<path d="M3.21938 24.54C1.21938 33.34 13.3861 36.2067 19.7194 36.54C38.7193 35.54 35.7195 27.54 36.2195 24.54C36.6195 22.14 34.3861 18.8734 33.2195 17.54C33.3861 17.04 33.5195 15.84 32.7195 15.04C24.3195 23.04 12.2195 18.3733 7.21948 15.04C6.88615 14.8733 6.21948 15.14 6.21948 17.54C5.41948 17.54 3.88608 22.2067 3.21938 24.54Z" fill="#FED7BA" stroke="black"/>
<path d="M3.04002 28L5.54002 21V17C5.54002 16.6667 5.14002 15.8 3.54002 15C1.14002 16.2 0.873349 20.8333 1.04002 23L2.54002 22L3.04002 28Z" fill="#78412D" stroke="black"/>
<path d="M17.0375 29C20.0376 23 16.3708 21.3333 15.0375 21C13.5375 21.3333 10.6375 22.9 11.0375 26.5C11.5375 31 16.2875 30.5 17.0375 29Z" fill="white" stroke="#E0A880"/>
<path d="M16.3601 27.4126C18.0298 24.1031 15.9891 23.1839 15.247 23C14.4122 23.1839 12.7982 24.048 13.0209 26.0336C13.2991 28.5157 15.9427 28.2399 16.3601 27.4126Z" fill="#342417" stroke="#342417"/>
<path d="M23.1498 29C20.1497 23 23.8164 21.3333 25.1498 21C26.6498 21.3333 29.5498 22.9 29.1498 26.5C28.6498 31 23.8998 30.5 23.1498 29Z" fill="white" stroke="#E0A880"/>
<path d="M23.6399 27.4126C21.9702 24.1031 24.0109 23.1839 24.753 23C25.5878 23.1839 27.2018 24.048 26.9791 26.0336C26.7009 28.5157 24.0573 28.2399 23.6399 27.4126Z" fill="#342417" stroke="#342417"/>
<ellipse cx="24.798" cy="24.6092" rx="1.5" ry="1" transform="rotate(-29.5198 24.798 24.6092)" fill="white"/>
<path d="M5.5 16L3 14C3.33333 9.66667 6.8 1 18 1C29.2 1 33 6 33.5 8.5L35 14L32 16C32.5 18.8333 30.7 24.3 19.5 23.5C8.3 22.7 5.5 18 5.5 16Z" fill="#E63636"/>
<path d="M5.5 16L3 14C3.33333 9.66667 6.8 1 18 1C29.2 1 33 6 33.5 8.5L35 14L32 16M5.5 16C5.5 18 8.3 22.7 19.5 23.5C30.7 24.3 32.5 18.8333 32 16M5.5 16C11.5 17.8333 25.2 20.8 32 16" stroke="black"/>
<path d="M35.5 27L33 20V16C33 15.6667 33.4 14.8 35 14C37.4 15.2 37.6667 19.8333 37.5 22L36 21L35.5 27Z" fill="#78412D" stroke="black"/>
<ellipse cx="8" cy="30" rx="3" ry="2" fill="#F8B2A8"/>
<ellipse cx="32" cy="30" rx="3" ry="2" fill="#F8B2A8"/>
<ellipse cx="13.798" cy="24.6092" rx="1.5" ry="1" transform="rotate(-29.5198 13.798 24.6092)" fill="white"/>
<path d="M17 31.5C18 33.6667 20.6 36.7 23 31.5" stroke="#E0A880" stroke-linecap="round"/>
<path d="M21 30C21 30.5523 20.5523 30.5 20 30.5C19.4477 30.5 19 30.5523 19 30C19 29.4477 19.4477 29 20 29C20.5523 29 21 29.4477 21 30Z" fill="#E0A880"/>
<rect x="19" y="42" width="2" height="7" fill="black"/>
<rect x="5.42432" y="50" width="7.05205" height="2" rx="1" transform="rotate(12.2507 5.42432 50)" fill="black"/>
<rect width="6.98048" height="2" rx="1" transform="matrix(-0.977228 0.21219 0.21219 0.977228 35.3396 50)" fill="black"/>
</svg>
