<svg width="40" height="56" viewBox="0 0 40 56" fill="none" xmlns="http://www.w3.org/2000/svg">
<path d="M3 26L6 19.5C3.6 19.5 2.66667 15.8333 2.5 14L1 20H3V26Z" fill="#9E7034" stroke="#A17133"/>
<path d="M24.5 36.5C24.1 36.9 19 36.6667 16.5 36.5L19 43.5H21.5C22.6667 41 24.9 36.1 24.5 36.5Z" fill="#F2C1A1" stroke="#FCCEAC"/>
<path d="M7 49L5 55.5H9L10.5 51.5L7 49Z" fill="#FDCFAD" stroke="#FFCEAD"/>
<path d="M34.5 49L36.5 55.5H32.5L31 51.5L34.5 49Z" fill="#FDCFAD" stroke="#FFCEAD"/>
<path d="M37 26L34 19.5C36.4 19.5 37.3333 15.8333 37.5 14L39 20H37V26Z" fill="#9E7034" stroke="#A17133"/>
<path d="M4.00337 27.5C17.6034 42.7 31.0034 33.8333 36.0034 27.5C36.8061 25.1 34.3225 20.8433 32.9804 19.0149C30.5202 20.5824 14.5533 19.6783 6.67978 19.0149C4.4209 21.0269 3.95431 25.51 4.00337 27.5Z" fill="#FDCFAD"/>
<path d="M6.50338 19C6.56171 19.005 6.62051 19.0099 6.67978 19.0149M33.0034 19C32.9959 19.005 32.9882 19.01 32.9804 19.0149M6.67978 19.0149C4.4209 21.0269 3.95431 25.51 4.00337 27.5C17.6034 42.7 31.0034 33.8333 36.0034 27.5C36.8061 25.1 34.3226 20.8433 32.9804 19.0149M6.67978 19.0149C14.5533 19.6783 30.5202 20.5824 32.9804 19.0149" stroke="#FECEAC"/>
<path d="M11.5 29.5C7.5 31.1 4.16667 28.3333 3 26.5C4 34 8 34 9 35C10 36 11 36.5 20 37C29 37.5 30.5 35 34.5 33C37.7 31.4 37.5 27.6667 37 26C32.6 31.6 28.5 30.3333 27 29L22.5 26L20 27L17.5 26.5C17.1667 26.8333 15.5 27.9 11.5 29.5Z" fill="#A87F41" stroke="#A87E41"/>
<path d="M11.2308 20.0763C9.38462 19.3896 8.30769 23.5097 8 25.6556C8.46154 27.8016 8.46154 26.9431 10.7692 27.8015C12.6154 28.4882 13.3846 27.2293 13.5385 26.514L14 22.2221C13.8462 21.793 13.0769 20.7629 11.2308 20.0763Z" stroke="#E1AD91" stroke-width="0.8"/>
<path d="M27.7692 20.0763C29.6154 19.3896 30.6923 23.5097 31 25.6556C30.5385 27.8016 30.5385 26.9431 28.2308 27.8015C26.3846 28.4882 25.6154 27.2293 25.4615 26.514L25 22.2221C25.1538 21.793 25.9231 20.7629 27.7692 20.0763Z" stroke="#E1AD91" stroke-width="0.8"/>
<path d="M13 26C13.1667 24 13.2 20 12 20C10.5232 20 10.0157 20.4846 10.0004 25.7482C9.98833 26.7467 11.9951 26.3321 13 26Z" fill="#644531"/>
<path d="M10 26C10 25.9149 10.0001 25.8309 10.0004 25.7482M10.0004 25.7482C10.0157 20.4846 10.5232 20 12 20C13.2 20 13.1667 24 13 26C11.9951 26.3321 9.98833 26.7467 10.0004 25.7482Z" stroke="#664733"/>
<path d="M29 26C29.1667 24 29.2 20 28 20C26.5232 20 26.0157 20.4846 26.0004 25.7482C25.9883 26.7467 27.9951 26.3321 29 26Z" fill="#644531"/>
<path d="M26 26C26 25.9149 26.0001 25.8309 26.0004 25.7482M26.0004 25.7482C26.0157 20.4846 26.5232 20 28 20C29.2 20 29.1667 24 29 26C27.9951 26.3321 25.9883 26.7467 26.0004 25.7482Z" stroke="#664733"/>
<path d="M12.0845 22.0473C10.8845 21.6473 10.9179 23.8807 11.0845 25.0473C11.4846 25.8473 12.5845 25.3807 13.0845 25.0473C13.2512 24.214 13.2845 22.4473 12.0845 22.0473Z" fill="#34271E" stroke="#33271E"/>
<path d="M27.0845 22.0473C25.8845 21.6473 25.9179 23.8807 26.0845 25.0473C26.4846 25.8473 27.5845 25.3807 28.0845 25.0473C28.2512 24.214 28.2845 22.4473 27.0845 22.0473Z" fill="#34271E" stroke="#33271E"/>
<path d="M8.5 21.2209C6.5 21.2209 3.33333 17.2209 2 15.2209L3 10.7209L4.12494 10.0592C5.3452 4.87847 11.8004 2.02078 15 1.22086C17.8333 1.05419 23.9 0.820861 25.5 1.22086C28 2.94143 33 6.75024 33 8.22089C33 9.69154 35 11.5003 36 12.2209C37 12.7209 36 16.2209 36 17.7209C36 18.9209 34 20.5542 33 21.2209H8.5Z" fill="#FDC226"/>
<path d="M4 10.7209C4.03209 10.4963 4.07394 10.2757 4.12494 10.0592M4.12494 10.0592C5.3452 4.87847 11.8004 2.02078 15 1.22086C17.8333 1.05419 23.9 0.820861 25.5 1.22086C28 2.94143 33 6.75024 33 8.22089C33 9.69154 35 11.5003 36 12.2209C37 12.7209 36 16.2209 36 17.7209C36 18.9209 34 20.5542 33 21.2209C25.6667 21.2209 10.5 21.2209 8.5 21.2209C6.5 21.2209 3.33333 17.2209 2 15.2209L3 10.7209L4.12494 10.0592Z" stroke="#FDC226"/>
<path d="M21.9841 28.0483C21.3175 28.215 19.6841 28.4483 18.4841 28.0483C17.3184 27.6598 14.643 29.6868 13.039 31.5483C12.6829 32.7483 14.854 33.3817 15.9841 33.5483C17.9841 33.715 22.6841 33.9483 25.4841 33.5483C28.2841 33.1483 26.9841 31.0483 25.9841 30.0483L21.9841 28.0483Z" fill="#FCCEAC" stroke="#A77F42"/>
<path d="M4 10C6.16667 12.5 11.6 16.2 14 11" stroke="#E3961D"/>
<path d="M34 9C31.8333 11.5 26.4 15.2 24 10" stroke="#E3961D"/>
<path d="M17 30C18 32 20.5 34.8 22.5 30" stroke="#AB6953" stroke-linecap="round"/>
<path d="M14 1.5V11" stroke="#DD8717" stroke-width="0.4"/>
<path d="M24 1V10.5" stroke="#DD8717" stroke-width="0.4"/>
<path d="M13.6615 17.5C5.53846 17.5 3.16923 13.1667 3 11V14C4.62462 17.2 7.73846 18.6667 9.09231 19H29.4C34.68 19 36 16.3333 36 15V12.5C36 16.5 29.2308 17.5 25.8462 17.5H13.6615Z" stroke="#DD8917"/>
<path d="M25.5 15.1994L18 16.1994L33.5 15.1994C33.8333 14.1994 34.3 12.3994 33.5 13.1994C32.7 13.9994 29.1667 13.866 27.5 13.6994C27.5 14.8994 26.1667 15.1994 25.5 15.1994Z" fill="#DD8919" stroke="#DD8919"/>
<path d="M21 24.2C21 24.8627 20.3284 25 19.5 25C18.6716 25 18 24.8627 18 24.2C18 23.5373 18.6716 23 19.5 23C20.3284 23 21 23.5373 21 24.2Z" fill="#D89069"/>
<path d="M6 48.5L11 51.5L12 49L13.5 55.5H30V51.5L35 49C34.6667 48.1667 33.7 45.7 32.5 42.5C31.3 39.3 28 38.8333 26.5 39L24.5 37L21.5 38.5V42.5L20.5 43L20 42.5L19.5 39L17 37L14.5 38.5C13.3333 39 10.9 40 10.5 40C10.1 40 8.66667 42 8 43L6 48.5Z" fill="#D5F2F8" stroke="#C9EFF9"/>
<path d="M12.5 47.5L11 51.5L12.5 55.5H29.5L31 51.5L28.5 46L27 45L26 46H16L15.5 45L13 45.5L12.5 47.5Z" fill="#4572AB" stroke="#4471AA"/>
<path d="M13 38L11 39.5L12.5 44.5L14.5 43.5L13 38Z" fill="#4572AB" stroke="#5079AA"/>
<path d="M28.5 38L30.5 39.5L29 44.5L27 43.5L28.5 38Z" fill="#4572AB" stroke="#5079AA"/>
</svg>
