<svg width="37" height="54" viewBox="0 0 37 54" fill="none" xmlns="http://www.w3.org/2000/svg">
<path d="M21.5578 35H17.4463V36.3333L19.5021 39L21.5578 37V35Z" fill="#C9856E" stroke="#C9856E"/>
<path d="M3.74121 53H7.16749L9.9085 47.5L7.16749 45L3.74121 53Z" fill="#FED7BA" stroke="#FED7BA"/>
<path d="M35.9482 53H32.522L29.7809 47.5L32.522 45L35.9482 53Z" fill="#FED7BA" stroke="#FED7BA"/>
<path d="M6.69853 31C6.01327 34.3333 6.56148 39.7 14.2363 34.5L6.69853 31Z" fill="#976528" stroke="#976527"/>
<path d="M7.16734 32C8.81195 33.6 16.0757 34.6667 19.5019 35C22.7911 35.425 27.9534 33.0104 30.466 32C34.5775 28 33.207 22.8333 31.8365 20C27.4509 20.4 19.0451 15.5 15.3904 13C15.3904 14.6 8.53785 19 5.11157 21V22.5C5.11157 25 5.52273 30.4 7.16734 32Z" fill="#FFD8BB" stroke="#FFD7BA"/>
<path d="M36 14.5L33.9442 16.5C33.9442 13.1667 31.3403 6.2 20.9244 5C10.5085 3.8 4.70669 13.1667 3.10777 18L1.73726 13.5C1.052 15.1667 0.229694 17.1 2.42251 11.5C5.16353 4.5 18.1834 1 20.2391 1C21.8837 1 23.6654 1.66667 24.3507 2H25.7212C30.655 2 34.6295 10.3333 36 14.5Z" fill="#F7F7F7" stroke="#7D8797" stroke-width="0.2"/>
<ellipse rx="2.66063" ry="1.57933" transform="matrix(-0.964445 -0.264283 -0.457641 0.889137 7.02981 28.1074)" fill="#F68F6E"/>
<ellipse rx="2.66063" ry="1.57933" transform="matrix(0.964445 -0.264283 0.457641 0.889137 31.6992 28.1074)" fill="#F68F6E"/>
<path d="M14.7052 6.15625C8.5379 6.15625 4.42637 12.1562 2.37061 19.6562V24.6562C2.37061 26.1562 5.11162 27.6562 6.82476 27.6562C8.19527 27.6562 8.08106 26.3229 7.85264 25.6562H5.79688C3.05586 25.1562 5.11162 21.6562 5.79688 20.1562C7.44149 20.1562 12.421 14.4896 14.7052 11.6562C14.7052 15.2563 25.6693 18.4896 31.1513 19.6562C33.8923 21.2563 32.7502 24.6562 31.8366 26.1562L31.1513 25.1562C30.6945 25.4896 29.7808 26.4562 29.7808 27.6562C29.7808 28.8563 31.1513 28.1562 31.8366 27.6562C32.9787 26.8229 34.9887 23.8563 33.8923 18.6562C31.1513 3.65625 18.8167 6.15625 14.7052 6.15625Z" fill="#B67F2C" stroke="#B67F2C"/>
<path d="M14.8766 19.1201C11.4503 18.1201 10.0798 23.6201 10.7651 26.1201C12.4097 28.5201 14.6482 27.1201 15.5618 26.1201C16.4755 24.1201 17.6176 19.9201 14.8766 19.1201Z" fill="#FDFDFD" stroke="#F0A686" stroke-width="0.5"/>
<path d="M15.2906 21.0569C13.7257 20.5833 13.0997 23.1883 13.4127 24.3724C14.1639 25.5091 15.1863 24.846 15.6036 24.3724C16.0209 23.4251 16.5426 21.4358 15.2906 21.0569Z" fill="#976528" stroke="#976528" stroke-width="0.5"/>
<path d="M15.6832 22.0284C14.9007 21.7916 14.5877 23.0941 14.7442 23.6862C15.1198 24.2545 15.631 23.923 15.8397 23.6862C16.0483 23.2125 16.3091 22.2179 15.6832 22.0284Z" fill="#4C2601" stroke="#4C2601" stroke-width="0.5"/>
<path d="M23.2762 19.1201C26.7025 18.1201 28.073 23.6201 27.3878 26.1201C25.7432 28.5201 23.5047 27.1201 22.591 26.1201C21.6773 24.1201 20.5352 19.9201 23.2762 19.1201Z" fill="#FDFDFD" stroke="#F0A686" stroke-width="0.5"/>
<path d="M22.3427 21.0569C23.9076 20.5833 24.5336 23.1883 24.2206 24.3724C23.4694 25.5091 22.447 24.846 22.0297 24.3724C21.6124 23.4251 21.0907 21.4358 22.3427 21.0569Z" fill="#976528" stroke="#976528" stroke-width="0.5"/>
<path d="M21.9504 22.0284C22.7329 21.7916 23.0458 23.0941 22.8893 23.6862C22.5138 24.2545 22.0025 23.923 21.7939 23.6862C21.5852 23.2125 21.3244 22.2179 21.9504 22.0284Z" fill="#4C2601" stroke="#4C2601" stroke-width="0.5"/>
<ellipse rx="0.625397" ry="0.910114" transform="matrix(0.863632 0.504123 -0.738844 0.673877 14.5469 21.9286)" fill="white"/>
<ellipse rx="0.625397" ry="0.910114" transform="matrix(-0.863632 0.504123 0.738844 0.673877 22.7703 21.9286)" fill="white"/>
<path d="M16.0757 29C16.7609 31 18.6797 33.8 20.8725 29" stroke="#B67F2C" stroke-linecap="round"/>
<path d="M18.8168 26L20.0037 27.5H17.6299L18.8168 26Z" fill="#F68F6E"/>
<path d="M20.2272 17.9749C20.2156 18.0039 20.2048 18.0146 20.1895 18C20.1822 17.993 20.1954 17.9844 20.2272 17.9749C20.2954 17.8041 20.3885 17 21.56 17C22.4148 17 24.1581 17.8104 25.4262 18.4836C25.7632 18.6242 26.0784 18.7945 26.3568 19C26.1051 18.8531 25.7846 18.6738 25.4262 18.4836C23.4031 17.6394 20.5926 17.8654 20.2272 17.9749Z" fill="#B67F2C"/>
<path d="M20.1895 18C20.2949 18.1006 20.1895 17 21.56 17C22.6564 17 25.2147 18.3333 26.3568 19C24.262 17.4536 20.0841 17.8994 20.1895 18Z" stroke="#B67F2C" stroke-width="0.3"/>
<path d="M15.3529 17.9749C15.3645 18.0039 15.3753 18.0146 15.3906 18C15.3979 17.993 15.3846 17.9844 15.3529 17.9749C15.2847 17.8041 15.1916 17 14.0201 17C13.1653 17 11.4219 17.8104 10.1539 18.4836C9.81685 18.6242 9.5017 18.7945 9.22332 19C9.475 18.8531 9.79544 18.6738 10.1539 18.4836C12.177 17.6394 14.9874 17.8654 15.3529 17.9749Z" fill="#B67F2C"/>
<path d="M15.3906 18C15.2852 18.1006 15.3906 17 14.0201 17C12.9237 17 10.3654 18.3333 9.22332 19C11.3181 17.4536 15.496 17.8994 15.3906 18Z" stroke="#B67F2C" stroke-width="0.3"/>
<path d="M21.5576 20.266C22.1866 18.8892 25.7023 17.9336 27.3353 21.266M27.7249 22.266C27.6124 21.8965 27.4814 21.5641 27.3353 21.266M27.3353 21.266C28.1952 20.466 27.9533 19.9327 27.7249 19.766" stroke="black" stroke-width="0.3" stroke-linecap="square"/>
<path d="M16.9761 20.266C16.3471 18.8892 12.8314 17.9336 11.1984 21.266M10.8088 22.266C10.9213 21.8965 11.0523 21.5641 11.1984 21.266M11.1984 21.266C10.3385 20.466 10.5804 19.9327 10.8088 19.766" stroke="black" stroke-width="0.3" stroke-linecap="square"/>
<path d="M10.5935 38.5L6.48193 44L10.5935 49L13.3345 47C14.4309 47.4 12.8776 51.1667 11.964 53H26.3543C23.6133 52.2 25.2122 48.3333 26.3543 46.5L27.7248 48L32.5216 44L29.0953 40C28.6385 39.5 26.6284 38 22.2428 36C20.05 40 17.6744 37.6667 16.7608 36L10.5935 38.5Z" fill="#F7F7F7" stroke="#F7F7F7"/>
<path d="M13.3345 37C14.0197 38.8333 15.8014 42.4 17.446 42L18.1313 41L18.8165 39.5L20.187 42C21.5575 41.3333 24.4356 39.4 24.9838 37" stroke="#DADADA" stroke-width="0.6"/>
<ellipse cx="18.8168" cy="45" rx="1.37051" ry="1" fill="#C4C4C4"/>
<ellipse cx="18.8168" cy="45" rx="1.37051" ry="1" fill="#C4C4C4"/>
<ellipse cx="18.8168" cy="48" rx="1.37051" ry="1" fill="#C4C4C4"/>
<ellipse cx="18.8168" cy="51" rx="1.37051" ry="1" fill="#C4C4C4"/>
<rect x="21.8076" y="43.25" width="3.61153" height="0.5" fill="white" stroke="#C4C4C4" stroke-width="0.5"/>
</svg>
