<svg width="41" height="58" viewBox="0 0 41 58" fill="none" xmlns="http://www.w3.org/2000/svg">
<path d="M8.35761 7.42269C4.20272 7.75727 4.0296 13.696 4.4624 16.6236C4.09769 16.6236 2.07125 21.9112 2.07125 21.9112C1.75139 22.6082 1.3602 24.5878 2.35424 26.9299C3.66696 31.6738 2.11147 36.6414 1 38.7895C1.69248 44.4773 9.51174 46.7258 12.6856 45.7499L13.5512 39.2077L14.4168 36.6983H26.5352C26.5352 37.8136 25.2368 42.9717 26.5352 42.9717C27.5739 42.9717 31.0075 44.4953 33.0272 45.7499C39.2595 45.4154 40.9619 36.6884 39.5192 33.2032C35.6102 32.3668 37.1467 24.3016 37.8524 19.8201C39.2889 17.478 37.9043 15.7772 37.0324 15.2196C36.3452 14.0899 35.8939 12.7416 35.6102 11.4556C36.2915 7.77522 33.8569 5.46105 32.5544 4.76401C24.0743 -2.97488 11.4761 2.90245 8.35761 7.42269Z" fill="#D83A26" stroke="#C14D3F"/>
<path d="M7.24801 24.8738C5.86305 30.5616 12.4416 37.2811 15.904 39.9298L18.9337 41.6027V44.5303H20.2321L21.9633 43.6938V41.6027L24.1273 39.9298C24.8486 39.651 27.33 38.006 31.4849 33.6565C34.601 30.9798 33.6489 23.0615 32.7833 19.4369C31.9177 19.0186 28.1956 17.764 20.2321 16.0911C10.2776 14 27.7748 18.9522 25.6697 19.4369C18.5562 21.0747 13.1185 17.729 10.2776 15.2546C9.21723 14.331 8.25791 17.0669 8.11364 18.1822C8.40217 18.0428 8.63297 19.1859 7.24801 24.8738Z" fill="#FED7BA" stroke="#C9A076"/>
<path d="M12.2529 21.9112L13.1185 22.7476" stroke="black" stroke-width="0.4"/>
<path d="M19.4591 26.0934C18.5935 26.9299 17.3816 28.6864 19.4591 29.021" stroke="#98602F"/>
<ellipse cx="13.5513" cy="23.5841" rx="1.2984" ry="1.67289" fill="#300F0A"/>
<path d="M26.968 21.9112L26.1024 22.7476" stroke="black" stroke-width="0.4"/>
<path d="M15.7153 31.9485C17.0137 33.0638 20.4761 34.6252 23.9385 31.9485" stroke="#98602F" stroke-linecap="round"/>
<ellipse cx="25.6695" cy="23.5841" rx="1.2984" ry="1.67289" fill="#300F0A"/>
<path d="M13.551 24.0023V22.7476" stroke="white" stroke-width="0.5" stroke-linecap="round"/>
<path d="M26.1025 24.0023V22.7476" stroke="white" stroke-width="0.5" stroke-linecap="round"/>
<path d="M5.76074 52.8598C6.62634 47.0047 11.9931 45.2481 12.6855 43.2406L13.9839 39.4766L18.312 40.7313V43.2406L20.0432 44.4953L21.3416 44.0771V40.7313L25.6696 39.4766L26.968 42.4042C29.9976 43.38 36.2299 46.8374 36.9224 52.8598C29.9976 58.2967 14.4167 59.1331 5.76074 52.8598Z" fill="#112340"/>
<path d="M12.6855 43.2406C11.9931 45.2481 6.62634 47.0047 5.76074 52.8598C14.4167 59.1331 29.9976 58.2967 36.9224 52.8598C36.2299 46.8374 29.9976 43.38 26.968 42.4042M12.6855 43.2406C13.378 41.2332 13.8397 39.8948 13.9839 39.4766L18.312 40.7313M12.6855 43.2406L17.0136 45.75C17.0136 45.3318 17.2732 43.7425 18.312 40.7313M18.312 40.7313V43.2406L20.0432 44.4953L21.3416 44.0771V40.7313M21.3416 40.7313L25.6696 39.4766L26.968 42.4042M21.3416 40.7313L22.64 45.75L26.968 42.4042" stroke="#7D8797" stroke-width="0.3"/>
<ellipse cx="20.0433" cy="47.841" rx="0.865601" ry="0.836447" fill="#112340"/>
<ellipse cx="20.0433" cy="51.1869" rx="0.865601" ry="0.836447" fill="#112340"/>
<path d="M10.9894 37.4342C6.5332 33.2536 6.90455 24.924 7.64725 21.2818L7.09031 16.056C6.34757 18.1147 4.52787 22.707 3.19101 24.6073C1.85415 26.5076 3.74803 30.1498 4.86208 31.7333C5.41915 32.5251 6.42186 35.6289 5.97624 41.7098C5.87541 43.0857 5.11295 44.077 6.3801 44.9135C7.64725 45.7499 10.7929 47.1957 12.6606 46.4605C13.9603 45.1937 15.4456 41.6148 10.9894 37.4342Z" fill="#E0503C" stroke="#E0503C"/>
</svg>
