<svg width="43" height="54" viewBox="0 0 43 54" fill="none" xmlns="http://www.w3.org/2000/svg">
<path d="M22 33H18V36L20.5 39L22 36V33Z" fill="#BC7D51" stroke="#BC7D51"/>
<path d="M5.13955 17C-0.0604477 30.2 13.8063 33 21.1396 32.5C36.7396 32.5 37.6396 24.5 36.1396 20.5L34.1396 15C25.7396 14.2 18.973 8.66667 16.6396 6C14.6396 10.8 7.9729 15.1667 5.13955 17Z" fill="#FED597" stroke="#FED597"/>
<ellipse rx="2.30983" ry="4.61577" transform="matrix(-0.99661 0.0822654 0.0822654 0.99661 23.6817 17.7901)" fill="white"/>
<path d="M15.5 8.04469C13.1667 11.378 7.90003 18.0447 5.50003 18.0447C4.33955 18.0447 3.75579 18.902 3.50003 19.9947V23.5447C3.32787 22.5978 3.22685 21.1619 3.50003 19.9947V15.5447L1 18.0447C2.66669 11.878 7.90005 0.0446872 15.5 2.04469C20.6667 0.0446843 32.2 -0.455321 37 13.5447H40.5L37 15.5447V23.5447L33.5 18.0447C28.3334 16.2114 17.5001 11.6447 15.5 8.04469Z" fill="#534230" stroke="black"/>
<path d="M5.5 44L2 53.5H6.5L8 49.5L11.5 46.5L13.5 53.5H28.5V46.5L32 49.5L34.5 53.5H38L34 44L30 37.5L22.5 34L20 37.5L17.5 34L9.5 37.5L5.5 44Z" fill="#494337" stroke="#544B42"/>
<ellipse cx="14.6818" cy="17.7901" rx="2.30983" ry="4.61577" transform="rotate(4.71879 14.6818 17.7901)" fill="white"/>
<path d="M16.6796 16.3341C17.2039 18.5258 17.466 22.7067 14.3204 21.8975C13.7961 19.3687 13.534 14.7157 16.6796 16.3341Z" fill="#342417" stroke="#342417"/>
<path d="M24.6796 16.3341C25.2039 18.5258 25.466 22.7067 22.3204 21.8975C21.7961 19.3687 21.534 14.7157 24.6796 16.3341Z" fill="#342417" stroke="#342417"/>
<path d="M16 25C16.6667 26.8333 18.8 29.4 22 25" stroke="black" stroke-linecap="round"/>
<path d="M16.7523 16.9062C16.9859 17.4066 16.7696 18.0017 16.2692 18.2353C15.7687 18.4689 14.5799 18.3296 14.3463 17.8291C14.1127 17.3287 14.9228 16.6566 15.4232 16.423C15.9237 16.1894 16.5187 16.4057 16.7523 16.9062Z" fill="white"/>
<path d="M24.7523 16.9062C24.9859 17.4066 24.7696 18.0017 24.2692 18.2353C23.7687 18.4689 22.5799 18.3296 22.3463 17.8291C22.1127 17.3287 22.9228 16.6566 23.4232 16.423C23.9237 16.1894 24.5187 16.4057 24.7523 16.9062Z" fill="white"/>
</svg>
