<svg width="38" height="47" viewBox="0 0 38 47" fill="none" xmlns="http://www.w3.org/2000/svg">
<path d="M26.3636 5.26273C16.2182 -2.48765 5.22727 4.61686 1 9.13792V15.7257C1 15.4674 1 16.0357 2.63636 18.8259C7.95455 13.7881 16.2727 12.1089 21.0455 11.8505L28.8182 10.688L31.2727 9.13792C31.9273 5.72777 26.3636 2.29174 23.5 1C23.5 1.38752 24.0727 2.78259 26.3636 5.26273Z" fill="#563621" stroke="#563621"/>
<path d="M9.59078 32.0015L11.2271 26.1887C10.5453 24.122 10.1635 20.221 14.0908 21.151C15.5708 21.5015 16.4001 21.7162 16.8151 21.8408L20.2271 20.7635L21.8635 15.3382L21.0453 12.6256C16.818 13.0131 5.25441 16.3458 2.63623 18.8259C7.13623 14.5632 15.1817 12.1089 18.5908 11.8506L30.0453 10.3005L34.1362 18.0509C33.7271 19.0842 33.1544 21.306 34.1362 21.926C35.118 22.5461 36.4544 24.2512 36.9999 25.0262V26.1887L34.9544 28.1263L35.7726 29.6764C35.3635 29.8056 34.6271 30.219 34.9544 30.839L35.7726 32.3891L34.9544 33.1641C34.6817 33.6808 34.2999 34.7917 34.9544 35.1017C35.609 35.4117 35.2271 37.0393 34.9544 37.8143C34.2726 38.5894 32.0908 40.1394 28.818 40.1394C25.5453 40.1394 25.2726 41.6895 25.5453 42.4646L24.318 45.5647C18.7271 46.0814 7.38168 46.0297 6.72714 41.6895C8.3635 38.9769 7.13623 38.2018 8.3635 35.1017C9.34532 32.6216 9.31805 33.2933 9.18168 33.9391L9.59078 32.0015Z" fill="#E5B19C"/>
<path d="M9.59078 32.0015L11.2271 26.1887C10.5453 24.122 10.1635 20.221 14.0908 21.151C18.018 22.081 17.3635 22.0552 16.5453 21.926L20.2271 20.7635L21.8635 15.3382L21.0453 12.6256C16.818 13.0131 5.25441 16.3458 2.63623 18.8259C7.13623 14.5632 15.1817 12.1089 18.5908 11.8506L30.0453 10.3005L34.1362 18.0509C33.7271 19.0842 33.1544 21.306 34.1362 21.926C35.118 22.5461 36.4544 24.2512 36.9999 25.0262V26.1887L34.9544 28.1263L35.7726 29.6764C35.3635 29.8056 34.6271 30.2189 34.9544 30.839C35.2817 31.459 35.6362 32.1307 35.7726 32.3891L34.9544 33.1641C34.6817 33.6808 34.2999 34.7917 34.9544 35.1017C35.609 35.4117 35.2271 37.0393 34.9544 37.8143C34.2726 38.5894 32.0908 40.1394 28.818 40.1394C25.5453 40.1394 25.2726 41.6895 25.5453 42.4645L24.318 45.5647C18.7271 46.0814 7.38168 46.0297 6.72714 41.6895C8.3635 38.9769 7.13623 38.2018 8.3635 35.1017C9.34532 32.6216 9.31805 33.2933 9.18168 33.9391L9.59078 32.0015Z" stroke="#E5B19C"/>
<path d="M14.4999 13.4006C10.5726 13.4006 4.95441 17.0174 2.63623 18.8258L3.8635 24.6386C4.84532 29.2889 6.99987 33.5516 7.95441 35.1016L9.18169 31.614C9.04532 30.7098 9.18169 28.3588 10.818 26.1887C9.18169 22.1585 12.318 21.4093 14.0908 21.5385L16.5453 22.3135L19.409 21.151L21.8635 15.3382L20.6362 13.4006H14.4999Z" fill="#724830" stroke="#724830"/>
<path d="M18.2054 30.839C19.5145 30.2189 18.2054 29.2889 17.3872 28.9014C16.2677 28.1263 16.9781 26.9638 17.3872 25.4137C16.7326 22.6236 14.3872 21.926 13.2963 21.926C12.6145 21.926 11.169 22.391 10.8417 24.2511C10.5145 26.1112 13.7054 29.1597 15.3417 30.4514C15.7508 30.839 16.8963 31.459 18.2054 30.839Z" fill="#EFBBA8" stroke="#EFBBA8"/>
<path d="M13.6818 27.8914L17.3636 29.054L15.318 27.1164C15.9726 25.5663 15.5908 24.4038 15.318 24.0162C12.3726 20.9161 11.6362 24.0162 11.6362 25.9538C11.6362 25.6955 11.8817 24.9463 12.8635 24.0162C13.8453 23.7062 14.6363 24.6621 14.9091 25.1788C12.2909 25.4888 13 27.1164 13.6818 27.8914Z" fill="#CF9383" stroke="#CA9080"/>
</svg>
